<svg xmlns="http://www.w3.org/2000/svg" width="1000" height="800" viewBox="0 0 1000 800"><g><path fill="#fff" d="M13.384 7.76c-.488-.488-1.279-.488-1.767 0l-.002.003-3.532 3.532c-.488.488-.488 1.28 0 1.768s1.279.488 1.768 0l1.401-1.401v5.214c0 .69.56 1.25 1.25 1.25s1.25-.56 1.25-1.25v-5.214l1.401 1.401c.488.488 1.28.488 1.768 0s.488-1.28 0-1.768l-3.537-3.535zm9.94-1.51c-3.451-5.977-11.095-8.025-17.073-4.574-5.978 3.451-8.026 11.095-4.574 17.073 3.451 5.978 11.094 8.026 17.072 4.575 5.978-3.452 8.026-11.095 4.575-17.074zm-5.824 14.908c-4.782 2.761-10.897 1.123-13.658-3.659-2.762-4.782-1.123-10.897 3.659-13.658s10.897-1.122 13.658 3.66 1.122 10.896-3.659 13.657z"/><path fill="#243746" d="M194.745 30.422h-4.507l-4.299-15.116c-.185-.659-.416-1.609-.693-2.852-.277-1.242-.445-2.106-.502-2.591-.116.74-.304 1.699-.563 2.877-.26 1.179-.477 2.057-.65 2.635l-4.195 15.046h-4.507l-3.276-12.689-3.328-12.654h4.229l3.623 14.769c.566 2.369.971 4.461 1.213 6.275.127-.982.318-2.08.572-3.293.254-1.214.485-2.196.693-2.947l4.125-14.804h4.108l4.229 14.873c.404 1.375.832 3.433 1.283 6.171.173-1.653.589-3.756 1.248-6.31l3.605-14.734h4.195l-6.603 25.344z"/><g fill="#243746"><path d="M212.227 10.905c.82 0 1.497.058 2.028.173l-.399 3.796c-.578-.139-1.179-.208-1.803-.208-1.629 0-2.95.531-3.961 1.595-1.011 1.063-1.517 2.444-1.517 4.143v10.02h-4.074v-19.173h3.189l.538 3.38h.208c.635-1.145 1.465-2.051 2.487-2.722 1.024-.669 2.125-1.004 3.304-1.004zM216.678 6.172c0-.728.199-1.289.598-1.682.398-.393.968-.589 1.708-.589.716 0 1.274.197 1.673.589.398.393.598.954.598 1.682 0 .693-.199 1.239-.598 1.638-.399.398-.957.598-1.673.598-.74 0-1.309-.2-1.708-.598-.399-.398-.598-.944-.598-1.638zm4.317 24.251h-4.074v-19.172h4.074v19.172zM242.122 11.251v2.236l-3.276.607c.301.405.549.901.746 1.491.196.589.295 1.213.295 1.872 0 1.976-.682 3.531-2.046 4.663-1.364 1.133-3.241 1.699-5.633 1.699-.613 0-1.167-.046-1.665-.139-.878.543-1.317 1.179-1.317 1.907 0 .439.205.769.616.988.41.22 1.164.329 2.262.329h3.345c2.115 0 3.721.451 4.819 1.352 1.098.901 1.646 2.202 1.646 3.9 0 2.172-.896 3.848-2.687 5.027-1.791 1.179-4.38 1.769-7.766 1.769-2.612 0-4.605-.462-5.98-1.387-1.375-.924-2.062-2.242-2.062-3.952 0-1.179.373-2.17 1.118-2.973.746-.803 1.788-1.361 3.129-1.673-.543-.231-.991-.604-1.343-1.118s-.529-1.054-.529-1.621c0-.716.202-1.323.607-1.82.404-.497 1.005-.988 1.803-1.473-.994-.428-1.8-1.124-2.418-2.089s-.927-2.095-.927-3.389c0-2.08.656-3.692 1.967-4.836s3.181-1.716 5.608-1.716c.543 0 1.112.038 1.708.113s1.043.153 1.343.234h6.637zm-15.064 22.154c0 .878.396 1.554 1.188 2.028.791.474 1.904.71 3.337.71 2.219 0 3.871-.318 4.958-.953 1.086-.636 1.629-1.479 1.629-2.531 0-.832-.298-1.425-.893-1.777-.596-.353-1.702-.529-3.32-.529h-3.085c-1.167 0-2.095.274-2.782.823s-1.032 1.293-1.032 2.229zm1.751-15.948c0 1.202.309 2.126.928 2.773.618.647 1.505.971 2.661.971 2.357 0 3.536-1.259 3.536-3.779 0-1.248-.292-2.21-.875-2.886-.583-.676-1.471-1.014-2.661-1.014-1.179 0-2.071.335-2.678 1.006-.608.67-.911 1.646-.911 2.929zM261.654 30.423h-4.091v-11.787c0-1.479-.297-2.583-.893-3.311s-1.54-1.092-2.834-1.092c-1.71 0-2.967.511-3.771 1.534-.803 1.022-1.205 2.736-1.205 5.14v9.517h-4.074v-26.973h4.074v6.847c0 1.098-.069 2.271-.208 3.519h.26c.555-.924 1.326-1.641 2.314-2.149s2.141-.763 3.458-.763c4.646 0 6.969 2.34 6.969 7.021v12.497zM273.577 27.477c.994 0 1.987-.156 2.981-.468v3.068c-.451.197-1.032.361-1.742.494-.711.133-1.447.199-2.21.199-3.86 0-5.79-2.034-5.79-6.102v-10.331h-2.617v-1.803l2.808-1.491 1.387-4.056h2.513v4.264h5.46v3.085h-5.46v10.262c0 .982.246 1.708.737 2.175.491.47 1.136.704 1.933.704zM303.992 30.423l-2.531-7.038h-9.69l-2.479 7.038h-4.368l9.482-25.447h4.507l9.482 25.447h-4.403zm-3.623-10.609l-2.375-6.899c-.173-.462-.414-1.19-.72-2.184-.306-.994-.517-1.722-.632-2.184-.312 1.421-.769 2.976-1.37 4.663l-2.288 6.604h7.385zM327.286 30.423h-4.091v-11.787c0-1.479-.297-2.583-.893-3.311s-1.54-1.092-2.834-1.092c-1.722 0-2.981.509-3.779 1.525-.797 1.017-1.196 2.722-1.196 5.114v9.551h-4.074v-19.172h3.189l.572 2.513h.208c.578-.913 1.398-1.618 2.461-2.115 1.063-.497 2.242-.745 3.536-.745 4.6 0 6.899 2.34 6.899 7.021v12.498zM348.257 11.251v2.236l-3.276.607c.301.405.549.901.746 1.491.196.589.295 1.213.295 1.872 0 1.976-.682 3.531-2.046 4.663-1.364 1.133-3.241 1.699-5.633 1.699-.613 0-1.167-.046-1.665-.139-.878.543-1.317 1.179-1.317 1.907 0 .439.205.769.616.988.41.22 1.164.329 2.262.329h3.345c2.115 0 3.721.451 4.819 1.352 1.098.901 1.646 2.202 1.646 3.9 0 2.172-.896 3.848-2.687 5.027-1.791 1.179-4.38 1.769-7.766 1.769-2.612 0-4.605-.462-5.98-1.387-1.375-.924-2.062-2.242-2.062-3.952 0-1.179.373-2.17 1.118-2.973.746-.803 1.788-1.361 3.129-1.673-.543-.231-.991-.604-1.343-1.118s-.529-1.054-.529-1.621c0-.716.202-1.323.607-1.82.404-.497 1.005-.988 1.803-1.473-.994-.428-1.8-1.124-2.418-2.089s-.927-2.095-.927-3.389c0-2.08.656-3.692 1.967-4.836s3.181-1.716 5.608-1.716c.543 0 1.112.038 1.708.113s1.043.153 1.343.234h6.637zm-15.063 22.154c0 .878.396 1.554 1.188 2.028.791.474 1.904.71 3.337.71 2.219 0 3.871-.318 4.958-.953 1.086-.636 1.629-1.479 1.629-2.531 0-.832-.298-1.425-.893-1.777-.596-.353-1.702-.529-3.32-.529h-3.085c-1.167 0-2.095.274-2.782.823s-1.032 1.293-1.032 2.229zm1.75-15.948c0 1.202.309 2.126.928 2.773.618.647 1.505.971 2.661.971 2.357 0 3.536-1.259 3.536-3.779 0-1.248-.292-2.21-.875-2.886-.583-.676-1.471-1.014-2.661-1.014-1.179 0-2.071.335-2.678 1.006-.607.67-.911 1.646-.911 2.929zM354.997 30.423h-4.074v-26.972h4.074v26.972zM368.306 30.77c-2.981 0-5.313-.87-6.994-2.609-1.682-1.739-2.522-4.134-2.522-7.185 0-3.132.78-5.593 2.34-7.385 1.56-1.791 3.704-2.687 6.431-2.687 2.531 0 4.53.769 5.998 2.305 1.467 1.537 2.202 3.652 2.202 6.345v2.201h-12.776c.058 1.861.561 3.291 1.508 4.291.947 1 2.282 1.5 4.004 1.5 1.132 0 2.187-.107 3.164-.321.976-.214 2.025-.569 3.146-1.066v3.311c-.994.474-2 .809-3.016 1.006-1.018.196-2.179.294-3.485.294zm-.745-16.78c-1.294 0-2.332.41-3.112 1.231-.78.82-1.245 2.017-1.396 3.588h8.702c-.023-1.583-.405-2.782-1.144-3.597-.739-.815-1.756-1.222-3.05-1.222z"/></g><g fill="#435664"><path d="M181.812 37.986c-3.178 0-5.68 1.017-7.506 3.051-1.826 2.034-2.739 4.819-2.739 8.355 0 3.617.861 6.425 2.583 8.424 1.722 2 4.183 2.999 7.384 2.999 2.126 0 4.08-.271 5.859-.815v1.56c-1.676.59-3.768.884-6.275.884-3.56 0-6.362-1.15-8.407-3.45-2.045-2.299-3.068-5.512-3.068-9.638 0-2.577.488-4.848 1.464-6.812.977-1.964 2.381-3.481 4.212-4.55s3.961-1.604 6.388-1.604c2.473 0 4.686.462 6.639 1.387l-.71 1.595c-1.849-.924-3.79-1.386-5.824-1.386zM204.052 62.098l-.434-2.981h-.139c-.948 1.213-1.921 2.071-2.921 2.574-1 .502-2.181.754-3.545.754-1.849 0-3.288-.474-4.316-1.421-1.029-.947-1.543-2.259-1.543-3.935 0-1.837.766-3.265 2.297-4.282 1.531-1.017 3.747-1.554 6.648-1.612l3.588-.104v-1.248c0-1.791-.364-3.144-1.092-4.056-.728-.913-1.901-1.37-3.519-1.37-1.745 0-3.554.485-5.426 1.456l-.641-1.491c2.068-.971 4.114-1.456 6.136-1.456 2.068 0 3.614.537 4.637 1.612 1.022 1.075 1.534 2.75 1.534 5.027v12.533h-1.264zm-6.934-1.213c2.011 0 3.597-.575 4.759-1.725 1.161-1.15 1.742-2.748 1.742-4.793v-1.855l-3.293.139c-2.646.127-4.533.541-5.66 1.239-1.127.699-1.69 1.789-1.69 3.268 0 1.179.361 2.095 1.083 2.748.721.653 1.741.979 3.059.979zM218.838 42.892c.797 0 1.652.081 2.565.243l-.33 1.646c-.786-.196-1.601-.294-2.444-.294-1.606 0-2.924.682-3.953 2.045-1.028 1.364-1.542 3.085-1.542 5.166v10.401h-1.716v-18.844h1.456l.173 3.398h.122c.774-1.387 1.601-2.36 2.479-2.921.879-.56 1.942-.84 3.19-.84zM233.295 62.445c-2.901 0-5.016-1.086-6.344-3.259h-.122l.052 1.456c.046.855.069 1.791.069 2.808v7.177h-1.716v-27.372h1.456l.33 2.687h.104c1.294-2.034 3.363-3.051 6.206-3.051 2.542 0 4.481.835 5.816 2.505 1.334 1.67 2.002 4.1 2.002 7.289 0 3.097-.702 5.498-2.106 7.203-1.405 1.705-3.32 2.557-5.747 2.557zm-.035-1.526c1.93 0 3.424-.716 4.481-2.149 1.058-1.433 1.586-3.438 1.586-6.015 0-5.536-2-8.303-5.998-8.303-2.196 0-3.808.604-4.836 1.812-1.028 1.208-1.542 3.175-1.542 5.902v.555c0 2.947.494 5.05 1.482 6.31.988 1.259 2.597 1.888 4.827 1.888zM253.975 62.445c-2.739 0-4.874-.843-6.405-2.531-1.532-1.687-2.297-4.05-2.297-7.09 0-3.004.739-5.411 2.219-7.22 1.479-1.809 3.473-2.713 5.98-2.713 2.219 0 3.969.774 5.252 2.323s1.924 3.652 1.924 6.31v1.387h-13.573c.023 2.589.626 4.565 1.812 5.929 1.184 1.364 2.88 2.045 5.087 2.045 1.075 0 2.02-.075 2.834-.226.814-.15 1.846-.474 3.094-.971v1.56c-1.063.462-2.046.777-2.947.945s-1.893.252-2.98.252zm-.502-18.028c-1.814 0-3.271.598-4.369 1.794-1.098 1.196-1.739 2.921-1.924 5.174h11.648c0-2.184-.474-3.892-1.421-5.122-.948-1.231-2.259-1.846-3.934-1.846zM278.989 62.098v-12.221c0-1.896-.399-3.273-1.196-4.134s-2.034-1.292-3.709-1.292c-2.253 0-3.903.569-4.949 1.708-1.046 1.138-1.569 2.984-1.569 5.538v10.401h-1.716v-18.843h1.456l.33 2.583h.104c1.225-1.964 3.403-2.947 6.535-2.947 4.275 0 6.414 2.294 6.414 6.882v12.325h-1.7zM291.764 60.919c1.086 0 2.034-.092 2.843-.277v1.387c-.832.277-1.792.416-2.877.416-1.664 0-2.892-.445-3.684-1.335-.792-.89-1.188-2.288-1.188-4.195v-12.169h-2.791v-1.005l2.791-.78.867-4.264h.884v4.559h5.53v1.491h-5.53v11.926c0 1.445.254 2.514.763 3.207.508.693 1.306 1.039 2.392 1.039zM306.1 42.892c.797 0 1.652.081 2.565.243l-.33 1.646c-.786-.196-1.601-.294-2.444-.294-1.606 0-2.924.682-3.953 2.045-1.028 1.364-1.542 3.085-1.542 5.166v10.401h-1.716v-18.844h1.456l.173 3.398h.122c.774-1.387 1.601-2.36 2.479-2.921.879-.56 1.942-.84 3.19-.84zM309.341 43.255h1.768l3.987 10.574c1.213 3.248 1.982 5.438 2.306 6.57h.104c.485-1.491 1.277-3.715 2.375-6.674l3.987-10.47h1.768l-8.442 21.894c-.682 1.78-1.254 2.981-1.716 3.605s-1.002 1.092-1.621 1.404-1.367.468-2.245.468c-.659 0-1.393-.122-2.202-.364v-1.491c.67.185 1.393.277 2.167.277.589 0 1.109-.139 1.56-.416s.858-.708 1.222-1.292c.364-.583.786-1.508 1.265-2.773.479-1.266.789-2.089.927-2.47l-7.21-18.842z"/></g><circle fill="#E03A3D" cx="131.464" cy="32.888" r="30.062"/><path fill="#fff" d="M150.817 39.935c-3.534.312-6.505.219-9.444-.72-1.125 1.596-3.408 5.097-4.535 7.881-3.189 7.974 1.783 9.381 7.537 4.597 3.221-2.721 6.536-6.786 8.194-9.851 1.938-3.628 3.596-1.094 1.782.876-1.75 1.97-3.533 5.316-4.096 8.38-.97 5.285 2.127 4.503 4.597 1.439.97-1.251 2.033-2.877 2.721-4.44.281-.595.875-.626.532.125-.563 1.25-1.751 3.471-2.908 5.003-1.063 1.438-2.846 2.689-4.597 2.689-3.471 0-2.689-6.161-1.282-8.006-2.564 3.034-8.413 9.007-12.853 7.099-3.002-1.282-3.002-6.818.125-12.478.782-1.407 1.689-2.751 2.752-3.971-1.251-.595-2.345-1.283-3.127-2.158-.875-1-.969-3.034-.281-3.534.375-.5.907-.156.563.594-.406.938-.062 1.657.657 2.471.688.782 1.626 1.438 2.751 1.97 3.94-4.377 9.163-8.162 15.26-8.162 3.347 0 5.379 1.658 5.379 3.972-.001 2.283-2.44 5.566-9.727 6.224zm4.441-9.382c-5.848 0-9.882 3.846-13.384 8.037 2.439.782 4.972.938 8.944.594 5.191-.438 8.443-2.752 8.443-5.848-.001-1.845-1.72-2.783-4.003-2.783zM125.398 37.069c-.094-1.532.25-3.22.626-4.472-1.751 2.878-6.692 10.07-10.132 10.226-1.251.062-2.376-.688-2.189-3.252.188-2.627 1.72-6.724 4.065-12.321 1.595-3.847 3.909-10.477 1.47-11.977-5.098-3.127-13.925 3.283-16.52 10.288-2.909 7.849 1.02 11.771 5.179 10.238 4.347-1.594 7.13-10.289 1.595-9.381-.97.156-.75-.281-.063-.501 6.912-2.126 6.067 7.412-1.595 10.633-4.909 2.032-10.203-4.14-6.702-12.146 3.347-7.724 12.445-12.571 17.98-10.132 4.535 2.002 3.127 7.849.907 12.854-1.845 4.127-3.909 9.787-4.503 12.758-.437 2.158.376 2.502 1.627 1.751 3.815-2.251 8.099-11.289 10.82-15.073 1.626-2.283 2.94-1.533 2.063 1.063-.813 2.345-2.782 6.004-3.126 8.631-1.126 8.975 10.257 1.626 12.883-4.628 2.596-6.16 1.814-11.758-3.158-11.07-2.814.75-1-1.032.438-.751 4.002-.344 7.63 4.503 4.66 12.103-3.19 8.099-15.73 13.415-16.325 5.159z"/><g fill="#1D1D1B"><path d="M173.511 77.736c-.843 0-1.595.224-2.255.671-.661.447-1.185 1.098-1.572 1.954-.387.855-.581 1.799-.581 2.83 0 .962.236 1.703.709 2.22.473.518 1.152.777 2.038.777.599 0 1.25-.109 1.951-.328v.604c-.667.209-1.344.314-2.028.314-1.078 0-1.904-.31-2.478-.931-.573-.62-.86-1.498-.86-2.631 0-1.138.224-2.182.671-3.131.447-.95 1.056-1.679 1.826-2.188s1.63-.764 2.58-.764c.757 0 1.414.146 1.97.437l-.289.577c-.235-.128-.501-.229-.799-.301s-.592-.11-.883-.11zM178.721 79.565c.992 0 1.589.469 1.791 1.405h.038l.379-1.296h.513l-1.469 6.976h-.526l.289-1.758h-.039c-.359.607-.759 1.074-1.2 1.399-.441.325-.948.488-1.521.488-1.202 0-1.803-.8-1.803-2.4 0-.843.16-1.647.481-2.413.321-.766.75-1.357 1.287-1.774.536-.418 1.129-.627 1.78-.627zm-1.598 6.636c.381 0 .761-.132 1.139-.398.378-.265.719-.62 1.021-1.065.301-.445.531-.937.69-1.476.158-.539.237-.995.237-1.367 0-.338-.056-.641-.167-.908-.111-.267-.276-.479-.494-.635s-.49-.234-.815-.234c-.531 0-1.01.176-1.438.526-.428.351-.779.876-1.053 1.576-.273.699-.411 1.396-.411 2.089 0 .65.107 1.128.321 1.434.215.305.537.458.97.458zM186.035 79.553c.295 0 .558.03.79.09l-.135.597c-.201-.064-.443-.096-.726-.096-.402 0-.785.137-1.148.411-.364.274-.691.685-.982 1.232-.291.547-.505 1.14-.642 1.777l-.642 3.087h-.629l1.482-6.976h.514l-.186 1.309h.038c.312-.402.576-.692.79-.87s.442-.315.684-.414c.241-.098.506-.147.792-.147zM189.153 86.753c-.984 0-1.581-.468-1.791-1.405h-.025c-.056.308-.375 1.794-.957 4.46h-.635l2.156-10.133h.526l-.289 1.758h.038c.39-.655.808-1.134 1.255-1.438.447-.304.936-.456 1.466-.456.578 0 1.022.198 1.335.593.312.396.468 1 .468 1.813 0 .834-.154 1.628-.462 2.381s-.73 1.346-1.268 1.778c-.534.433-1.141.649-1.817.649zm1.604-6.636c-.372 0-.745.125-1.117.375s-.718.609-1.036 1.075c-.319.466-.555.974-.709 1.524-.154.55-.231.996-.231 1.338 0 .535.131.963.395 1.287.263.323.624.484 1.082.484.53 0 1.012-.18 1.444-.539s.783-.88 1.053-1.562c.27-.683.404-1.379.404-2.089-.001-1.261-.429-1.893-1.285-1.893zM196.012 86.779c-.74 0-1.318-.234-1.733-.703-.415-.469-.622-1.122-.622-1.961 0-.774.152-1.517.456-2.227s.722-1.275 1.254-1.694 1.12-.629 1.762-.629c.488 0 .877.13 1.168.392.291.261.437.616.437 1.065 0 .774-.35 1.365-1.049 1.771-.7.407-1.738.61-3.116.61h-.212c-.025.188-.039.397-.039.629 0 .706.158 1.244.475 1.614.316.37.772.555 1.367.555.565 0 1.155-.156 1.771-.468v.603c-.599.295-1.239.443-1.919.443zm1.039-6.662c-.561 0-1.081.247-1.562.741s-.829 1.154-1.043 1.98h.314c2.212 0 3.318-.578 3.318-1.733 0-.287-.093-.523-.279-.709-.186-.186-.435-.279-.748-.279zM203.532 86.65l.957-4.441c.09-.394.135-.727.135-1.001 0-.342-.093-.61-.279-.802s-.474-.289-.863-.289c-.479 0-.93.144-1.351.43-.422.287-.777.688-1.065 1.203-.289.516-.51 1.128-.665 1.839l-.654 3.061h-.629l1.482-6.976h.526l-.238 1.418h.039c.702-1.018 1.592-1.527 2.67-1.527.556 0 .973.137 1.251.411.278.274.417.667.417 1.181 0 .299-.051.688-.154 1.168l-.95 4.325h-.629zM210.089 79.675l-.115.52h-1.816l-.866 4.075c-.094.423-.141.774-.141 1.052 0 .595.27.892.809.892.291 0 .616-.055.976-.167v.552c-.433.12-.796.18-1.091.18-.423 0-.751-.117-.982-.35-.231-.233-.346-.572-.346-1.018 0-.312.062-.753.186-1.322l.828-3.896h-1.168l.09-.43 1.181-.109.623-1.624h.353l-.353 1.643h1.832zM213.836 79.553c.295 0 .558.03.79.09l-.135.597c-.201-.064-.443-.096-.726-.096-.402 0-.785.137-1.148.411-.364.274-.691.685-.982 1.232-.291.547-.505 1.14-.642 1.777l-.642 3.087h-.629l1.482-6.976h.514l-.186 1.309h.038c.312-.402.576-.692.79-.87s.442-.315.684-.414c.241-.098.505-.147.792-.147zM214.547 79.675h.642l.526 3.517c.218 1.501.335 2.462.353 2.881h.071c.184-.449.582-1.234 1.194-2.355l2.233-4.043h.661l-4.576 8.278c-.308.543-.57.924-.786 1.142-.216.218-.46.392-.731.52-.272.128-.585.192-.94.192-.291 0-.566-.045-.828-.135v-.59c.304.116.597.173.879.173.342 0 .656-.106.943-.318.287-.211.564-.563.834-1.056l.642-1.181-1.117-7.025zM220.938 85.123l.051.147c-.146.394-.39.893-.731 1.499-.343.605-.685 1.13-1.027 1.576h-.475c.338-.565.64-1.145.905-1.739s.454-1.089.565-1.482h.712zM227.141 82.588l-.841 4.062h-.661l1.989-9.382h1.944c1.84 0 2.76.77 2.76 2.31 0 .779-.222 1.427-.665 1.945-.442.518-1.045.843-1.806.975.86 2.529 1.333 3.913 1.418 4.152h-.712l-1.354-4.062h-2.072zm.141-.59h1.617c.89 0 1.568-.204 2.035-.613.466-.408.699-1.011.699-1.807 0-1.146-.704-1.72-2.111-1.72h-1.354l-.886 4.14zM235.014 86.779c-.74 0-1.318-.234-1.733-.703-.415-.469-.622-1.122-.622-1.961 0-.774.152-1.517.456-2.227s.722-1.275 1.254-1.694 1.12-.629 1.762-.629c.488 0 .877.13 1.168.392.291.261.437.616.437 1.065 0 .774-.35 1.365-1.049 1.771-.7.407-1.738.61-3.116.61h-.212c-.025.188-.039.397-.039.629 0 .706.158 1.244.475 1.614.316.37.772.555 1.367.555.565 0 1.155-.156 1.771-.468v.603c-.6.295-1.239.443-1.919.443zm1.039-6.662c-.561 0-1.081.247-1.562.741s-.829 1.154-1.043 1.98h.314c2.212 0 3.318-.578 3.318-1.733 0-.287-.093-.523-.279-.709-.186-.186-.435-.279-.748-.279zM242.534 86.65l.957-4.441c.09-.394.135-.727.135-1.001 0-.342-.093-.61-.279-.802s-.474-.289-.863-.289c-.479 0-.93.144-1.351.43-.422.287-.777.688-1.065 1.203-.289.516-.51 1.128-.665 1.839l-.654 3.061h-.629l1.482-6.976h.526l-.238 1.418h.039c.702-1.018 1.592-1.527 2.67-1.527.556 0 .973.137 1.251.411.278.274.417.667.417 1.181 0 .299-.051.688-.154 1.168l-.95 4.325h-.629zM248.802 79.54c.77 0 1.366.232 1.787.696.421.464.632 1.104.632 1.922 0 .843-.153 1.631-.459 2.365-.306.734-.724 1.293-1.254 1.678-.531.385-1.143.578-1.835.578-.788 0-1.385-.234-1.794-.703-.409-.469-.613-1.139-.613-2.012 0-.817.156-1.583.468-2.297.312-.714.734-1.264 1.265-1.649.53-.386 1.131-.578 1.803-.578zm-.051.552c-.531 0-1.008.168-1.431.504-.424.336-.762.817-1.014 1.444-.252.626-.378 1.291-.378 1.993 0 1.463.603 2.195 1.81 2.195.543 0 1.026-.166 1.447-.498s.757-.819 1.007-1.463c.25-.644.375-1.351.375-2.121 0-.659-.156-1.166-.468-1.521-.313-.355-.762-.533-1.348-.533zM253.293 86.65l-1.104-6.976h.648l.693 4.717c.111.706.182 1.249.211 1.63h.039c.218-.492.494-1.04.828-1.643l2.605-4.704h.654l-3.85 6.976h-.724zM261.141 79.565c.992 0 1.589.469 1.791 1.405h.038l.379-1.296h.513l-1.469 6.976h-.526l.289-1.758h-.039c-.359.607-.759 1.074-1.2 1.399-.441.325-.948.488-1.521.488-1.202 0-1.803-.8-1.803-2.4 0-.843.16-1.647.481-2.413.321-.766.75-1.357 1.287-1.774.535-.418 1.129-.627 1.78-.627zm-1.599 6.636c.381 0 .761-.132 1.139-.398.378-.265.719-.62 1.021-1.065.301-.445.531-.937.69-1.476.158-.539.237-.995.237-1.367 0-.338-.056-.641-.167-.908-.111-.267-.276-.479-.494-.635s-.49-.234-.815-.234c-.531 0-1.01.176-1.438.526-.428.351-.779.876-1.053 1.576-.273.699-.411 1.396-.411 2.089 0 .65.107 1.128.321 1.434.216.305.538.458.97.458zM268.333 79.675l-.115.52h-1.816l-.866 4.075c-.094.423-.141.774-.141 1.052 0 .595.27.892.809.892.291 0 .616-.055.976-.167v.552c-.433.12-.796.18-1.091.18-.423 0-.751-.117-.982-.35-.231-.233-.346-.572-.346-1.018 0-.312.062-.753.186-1.322l.828-3.896h-1.168l.09-.43 1.181-.109.623-1.624h.353l-.353 1.643h1.832zM268.621 86.65h-.629l1.482-6.976h.616l-1.469 6.976zm1.129-8.766c0-.235.047-.424.141-.565s.223-.212.385-.212c.244 0 .366.154.366.462 0 .244-.047.436-.141.577-.094.142-.216.212-.366.212-.125 0-.219-.042-.286-.125s-.099-.199-.099-.349zM274.389 79.54c.77 0 1.366.232 1.787.696.421.464.632 1.104.632 1.922 0 .843-.153 1.631-.459 2.365-.306.734-.724 1.293-1.254 1.678-.531.385-1.143.578-1.835.578-.788 0-1.385-.234-1.794-.703-.409-.469-.613-1.139-.613-2.012 0-.817.156-1.583.468-2.297.312-.714.734-1.264 1.265-1.649.53-.386 1.131-.578 1.803-.578zm-.052.552c-.531 0-1.008.168-1.431.504-.424.336-.762.817-1.014 1.444-.252.626-.378 1.291-.378 1.993 0 1.463.603 2.195 1.81 2.195.543 0 1.026-.166 1.447-.498s.757-.819 1.007-1.463c.25-.644.375-1.351.375-2.121 0-.659-.156-1.166-.468-1.521-.312-.355-.762-.533-1.348-.533zM282.011 86.65l.957-4.441c.09-.394.135-.727.135-1.001 0-.342-.093-.61-.279-.802s-.474-.289-.863-.289c-.479 0-.93.144-1.351.43-.422.287-.777.688-1.065 1.203-.289.516-.51 1.128-.665 1.839l-.654 3.061h-.629l1.482-6.976h.526l-.238 1.418h.039c.702-1.018 1.592-1.527 2.67-1.527.556 0 .973.137 1.251.411.278.274.417.667.417 1.181 0 .299-.051.688-.154 1.168l-.95 4.325h-.629zM287.701 84.571c0-.693.212-1.287.635-1.781.424-.494 1.119-.955 2.086-1.383l-.263-.43c-.333-.548-.5-1.085-.5-1.611 0-.672.216-1.214.648-1.627s.997-.619 1.694-.619c.62 0 1.106.164 1.457.491.351.327.526.769.526 1.325 0 .364-.087.693-.263.988-.175.295-.434.569-.776.821-.342.253-.89.548-1.643.886l2.118 2.971c.312-.321.602-.698.869-1.132.268-.435.463-.833.587-1.197h.712c-.437 1.057-1.046 1.99-1.829 2.798l1.181 1.579h-.79l-.841-1.181c-.518.462-1.035.795-1.553 1.001-.518.206-1.087.308-1.707.308-.715 0-1.285-.201-1.71-.604-.425-.401-.638-.935-.638-1.603zm2.484 1.675c.462 0 .914-.091 1.357-.273.443-.182.919-.495 1.428-.94l-2.259-3.164c-.702.338-1.198.626-1.489.863s-.512.503-.664.796-.228.632-.228 1.017c0 .509.167.92.5 1.232.335.313.786.469 1.355.469zm1.816-8.548c-.535 0-.95.146-1.245.437-.295.291-.443.702-.443 1.232 0 .564.233 1.166.7 1.803.869-.381 1.466-.73 1.793-1.049.328-.319.491-.709.491-1.171 0-.389-.121-.695-.363-.917s-.552-.335-.933-.335zM303.453 85.335l4.704-8.067h.963l-1.932 9.382h-.648l1.226-5.782c.338-1.579.552-2.535.642-2.869h-.039l-5.006 8.651h-.327l-1.425-8.65h-.038c-.086.659-.253 1.57-.501 2.734l-1.258 5.917h-.616l1.983-9.382h.917l1.316 8.067h.039zM313.085 79.565c.992 0 1.589.469 1.791 1.405h.038l.379-1.296h.513l-1.469 6.976h-.526l.289-1.758h-.039c-.359.607-.759 1.074-1.2 1.399-.441.325-.948.488-1.521.488-1.202 0-1.803-.8-1.803-2.4 0-.843.16-1.647.481-2.413.321-.766.75-1.357 1.287-1.774.536-.418 1.13-.627 1.78-.627zm-1.598 6.636c.381 0 .761-.132 1.139-.398.378-.265.719-.62 1.021-1.065.301-.445.531-.937.69-1.476.158-.539.237-.995.237-1.367 0-.338-.056-.641-.167-.908-.111-.267-.276-.479-.494-.635s-.49-.234-.815-.234c-.531 0-1.01.176-1.438.526-.428.351-.779.876-1.053 1.576-.273.699-.411 1.396-.411 2.089 0 .65.107 1.128.321 1.434.215.305.538.458.97.458zM316.94 86.65h-.629l1.482-6.976h.616l-1.469 6.976zm1.13-8.766c0-.235.047-.424.141-.565s.223-.212.385-.212c.244 0 .366.154.366.462 0 .244-.047.436-.141.577-.094.142-.216.212-.366.212-.125 0-.219-.042-.286-.125s-.099-.199-.099-.349zM323.446 86.65l.957-4.441c.09-.394.135-.727.135-1.001 0-.342-.093-.61-.279-.802s-.474-.289-.863-.289c-.479 0-.93.144-1.351.43-.422.287-.777.688-1.065 1.203-.289.516-.51 1.128-.665 1.839l-.654 3.061h-.629l1.482-6.976h.526l-.238 1.418h.039c.702-1.018 1.592-1.527 2.67-1.527.556 0 .973.137 1.251.411.278.274.417.667.417 1.181 0 .299-.051.688-.154 1.168l-.95 4.325h-.629zM330.004 79.675l-.115.52h-1.816l-.866 4.075c-.094.423-.141.774-.141 1.052 0 .595.27.892.809.892.291 0 .616-.055.976-.167v.552c-.433.12-.796.18-1.091.18-.423 0-.751-.117-.982-.35-.231-.233-.346-.572-.346-1.018 0-.312.062-.753.186-1.322l.828-3.896h-1.168l.09-.43 1.181-.109.623-1.624h.353l-.353 1.643h1.832zM332.185 86.779c-.74 0-1.318-.234-1.733-.703-.415-.469-.622-1.122-.622-1.961 0-.774.152-1.517.456-2.227s.722-1.275 1.254-1.694 1.12-.629 1.762-.629c.488 0 .877.13 1.168.392.291.261.437.616.437 1.065 0 .774-.35 1.365-1.049 1.771-.7.407-1.738.61-3.116.61h-.212c-.025.188-.039.397-.039.629 0 .706.158 1.244.475 1.614.316.37.772.555 1.367.555.565 0 1.155-.156 1.771-.468v.603c-.6.295-1.239.443-1.919.443zm1.039-6.662c-.561 0-1.081.247-1.562.741s-.829 1.154-1.043 1.98h.314c2.212 0 3.318-.578 3.318-1.733 0-.287-.093-.523-.279-.709-.186-.186-.435-.279-.748-.279zM339.705 86.65l.957-4.441c.09-.394.135-.727.135-1.001 0-.342-.093-.61-.279-.802s-.474-.289-.863-.289c-.479 0-.93.144-1.351.43-.422.287-.777.688-1.065 1.203-.289.516-.51 1.128-.665 1.839l-.654 3.061h-.629l1.482-6.976h.526l-.238 1.418h.039c.702-1.018 1.592-1.527 2.67-1.527.556 0 .973.137 1.251.411.278.274.417.667.417 1.181 0 .299-.051.688-.154 1.168l-.95 4.325h-.629zM346.012 79.565c.992 0 1.589.469 1.791 1.405h.038l.379-1.296h.513l-1.469 6.976h-.526l.289-1.758h-.039c-.359.607-.759 1.074-1.2 1.399-.441.325-.948.488-1.521.488-1.202 0-1.803-.8-1.803-2.4 0-.843.16-1.647.481-2.413.321-.766.75-1.357 1.287-1.774.536-.418 1.129-.627 1.78-.627zm-1.598 6.636c.381 0 .761-.132 1.139-.398.378-.265.719-.62 1.021-1.065.301-.445.531-.937.69-1.476.158-.539.237-.995.237-1.367 0-.338-.056-.641-.167-.908-.111-.267-.276-.479-.494-.635s-.49-.234-.815-.234c-.531 0-1.01.176-1.438.526-.428.351-.779.876-1.053 1.576-.273.699-.411 1.396-.411 2.089 0 .65.107 1.128.321 1.434.215.305.537.458.97.458zM353.654 86.65l.957-4.441c.09-.394.135-.727.135-1.001 0-.342-.093-.61-.279-.802s-.474-.289-.863-.289c-.479 0-.93.144-1.351.43-.422.287-.777.688-1.065 1.203-.289.516-.51 1.128-.665 1.839l-.654 3.061h-.629l1.482-6.976h.526l-.238 1.418h.039c.702-1.018 1.592-1.527 2.67-1.527.556 0 .973.137 1.251.411.278.274.417.667.417 1.181 0 .299-.051.688-.154 1.168l-.95 4.325h-.629zM358.818 86.779c-.744 0-1.332-.236-1.762-.709-.43-.473-.645-1.128-.645-1.967 0-.826.157-1.599.472-2.32.314-.721.739-1.271 1.273-1.649.535-.378 1.155-.568 1.861-.568.573 0 1.089.092 1.546.276l-.18.578c-.458-.201-.924-.302-1.399-.302-.552 0-1.049.165-1.492.494-.443.33-.791.805-1.043 1.425-.252.621-.379 1.305-.379 2.054 0 .676.157 1.197.472 1.562s.761.549 1.338.549c.304 0 .585-.028.844-.083s.54-.154.844-.295v.59c-.494.243-1.078.365-1.75.365zM364.131 86.779c-.74 0-1.318-.234-1.733-.703-.415-.469-.622-1.122-.622-1.961 0-.774.152-1.517.456-2.227s.722-1.275 1.254-1.694 1.12-.629 1.762-.629c.488 0 .877.13 1.168.392.291.261.437.616.437 1.065 0 .774-.35 1.365-1.049 1.771-.7.407-1.738.61-3.116.61h-.212c-.025.188-.039.397-.039.629 0 .706.158 1.244.475 1.614.316.37.772.555 1.367.555.565 0 1.155-.156 1.771-.468v.603c-.599.295-1.239.443-1.919.443zm1.039-6.662c-.561 0-1.081.247-1.562.741s-.829 1.154-1.043 1.98h.314c2.212 0 3.318-.578 3.318-1.733 0-.287-.093-.523-.279-.709-.186-.186-.435-.279-.748-.279z"/></g></g></svg>